<svg xmlns="http://www.w3.org/2000/svg" width="949" height="256"><path fill="#2366d1" d="M110.851 128l110.852 64-110.852 64L0 192z"/><path fill="#609dff" d="M110.851 64l110.852 64-110.852 64L0 128z"/><path fill="#a4c7ff" d="M110.851 0l110.852 64-110.852 64L0 64z"/><path d="M729.722 62.863v88.883a42.493 42.493 0 0 0 .046 1.987q.42 8.955 4.653 16.283a35.094 35.094 0 0 0 .766 1.263 36.119 36.119 0 0 0 2.006 2.845q4.757 6.099 12.04 9.985a44.177 44.177 0 0 0 1.186.61 43.154 43.154 0 0 0 3.44 1.52q7.768 3.04 17.133 3.295a63.566 63.566 0 0 0 1.738.023 63.394 63.394 0 0 0 1.943-.029q10.273-.315 18.617-3.99a42.881 42.881 0 0 0 1.75-.819q9.766-4.838 15.322-13.44a34.651 34.651 0 0 0 1.563-2.675q3.716-7.067 3.973-15.584a42.234 42.234 0 0 0 .019-1.274V62.863a7.6 7.6 0 0 1 .026-.648q.176-2.051 1.497-3.294a5.08 5.08 0 0 1 1.908-1.14q.89-.294 1.945-.294 1.576 0 2.728.566a4.53 4.53 0 0 1 1.214.868q1.282 1.281 1.418 3.423a8.21 8.21 0 0 1 .016.519v88.883q0 13.714-6.474 24.485a44.854 44.854 0 0 1-.425.693q-6.9 11.02-19.175 17.203-11.357 5.72-25.55 6.148a76.797 76.797 0 0 1-2.315.034q-15.59 0-27.866-6.182a54.484 54.484 0 0 1-1.884-.995q-9.706-5.374-15.744-13.995a46.045 46.045 0 0 1-1.457-2.213q-6.81-11.021-6.81-25.178V62.863a7.6 7.6 0 0 1 .027-.648q.176-2.051 1.497-3.294a5.08 5.08 0 0 1 1.907-1.14q.89-.294 1.946-.294 1.576 0 2.728.566a4.53 4.53 0 0 1 1.214.868q1.282 1.281 1.418 3.423a8.21 8.21 0 0 1 .016.519zm197.12-.896a48.655 48.655 0 0 0-.426-.242q-10.76-6.03-23.587-6.03a70.003 70.003 0 0 0-1.676.02q-11.514.275-20.455 4.37a43.225 43.225 0 0 0-1.043.495q-8.836 4.335-13.831 11.87-5.286 7.975-5.286 18.368 0 13.665 10.085 23.438a41.455 41.455 0 0 0 1.294 1.202 42.441 42.441 0 0 0 1.859 1.561q10.533 8.344 27.565 11.146a93.737 93.737 0 0 0 1.846.285q15.694 2.148 24.306 9.092a29.127 29.127 0 0 1 1.41 1.212 30.514 30.514 0 0 1 .593.56q8.098 7.838 8.098 19.6 0 14.157-8.87 21.863a27.497 27.497 0 0 1-3.12 2.342q-7.839 5.062-19.732 5.346a59.837 59.837 0 0 1-1.43.017 71.526 71.526 0 0 1-1.532-.016q-11.013-.236-19.352-3.893a38.568 38.568 0 0 1-2.144-1.019 39.633 39.633 0 0 1-1.068-.57q-7.554-4.18-11.988-11.01a33.27 33.27 0 0 1-1.37-2.308 8.48 8.48 0 0 0-.122-.249q-1.452-2.822-4.366-3.12a6.96 6.96 0 0 0-.708-.036 8.536 8.536 0 0 0-.24.004q-2.342.066-3.792 1.43a5.214 5.214 0 0 0-.477.512q-.83 1.022-1.001 2.354a5.602 5.602 0 0 0-.045.718 4.353 4.353 0 0 0 .059.712q.066.4.207.8a5.526 5.526 0 0 0 .271.638 45.53 45.53 0 0 0 .495.948q5.595 10.411 16.07 16.848a52.08 52.08 0 0 0 1.893 1.11q12.365 6.9 29.21 6.9 11.242 0 20.167-3.574a43.425 43.425 0 0 0 2.86-1.265q9.945-4.839 15.411-13.978a35.83 35.83 0 0 0 1.493-2.766q3.973-8.197 3.973-18.738a50.968 50.968 0 0 0-.021-1.471q-.41-14.205-8.813-23.52a34.86 34.86 0 0 0-1.56-1.62q-10.394-10.125-32.973-13.888a110.517 110.517 0 0 1-1.267-.218q-16.243-2.903-24.18-9.459a28.853 28.853 0 0 1-.648-.552q-7.594-6.66-7.594-16.293a34.505 34.505 0 0 1 0-.093q.033-11.94 8.332-18.633a24.664 24.664 0 0 1 .602-.47q7.859-5.946 21.225-6.235a63.836 63.836 0 0 1 1.38-.015 51.13 51.13 0 0 1 .597.003q18.697.219 29.034 14.16a41.559 41.559 0 0 1 1.012 1.427q1.582 2.373 4.281 2.651a7.183 7.183 0 0 0 .737.037 10.18 10.18 0 0 0 .43-.009q1.115-.047 1.72-.349a7.458 7.458 0 0 0 .095-.048q.709-.368 1.26-.847a5.325 5.325 0 0 0 .885-.987q.558-.805.73-1.74a4.733 4.733 0 0 0 .076-.858q0-1.613-.716-2.867-5.197-8.781-16.128-15.053zm-514.624-6.224a77.454 77.454 0 0 0-2.727-.048q-17.395 0-32.21 8.038a69.54 69.54 0 0 0-3.003 1.728 76.306 76.306 0 0 0-1.098.682q-13.906 8.794-22.682 22.787a77.975 77.975 0 0 0-1.666 2.784q-9.408 16.487-9.408 35.661 0 17.452 7.868 32.75a75.314 75.314 0 0 0 1.63 3q9.497 16.576 25.625 26.343a72.41 72.41 0 0 0 1.11.659q15.664 9.107 33.834 9.107 28.672 0 44.083-15.411 1.069-1.22 1.228-3.091a7.955 7.955 0 0 0 .027-.672q0-1.93-1.17-3.369a6.03 6.03 0 0 0-.533-.574 7.35 7.35 0 0 0-.08-.074q-1.672-1.538-3.772-1.538a4.37 4.37 0 0 0-1.19.163q-.45.126-.88.351a5.256 5.256 0 0 0-.618.382q-15.95 13.081-37.095 13.081-14.455 0-27.07-6.772a61.066 61.066 0 0 1-2.587-1.471q-13.71-8.243-21.684-22.31-7.257-12.803-7.91-27.611a66.884 66.884 0 0 1-.064-2.943q0-15.949 8.064-30.016a68.144 68.144 0 0 1 .105-.182q8.048-13.94 21.668-22.308a61.64 61.64 0 0 1 1.996-1.175q11.555-6.515 24.544-7.173a58.038 58.038 0 0 1 2.938-.074 82.048 82.048 0 0 1 .28 0q16.358.057 28.01 6.642a44.107 44.107 0 0 1 7.73 5.544 16.124 16.124 0 0 0 .326.273q2.312 1.877 4.153 1.877a6.982 6.982 0 0 0 .448-.014q1.702-.11 2.868-1.067a4.811 4.811 0 0 0 .627-.621 6.996 6.996 0 0 0 .16-.198q1.273-1.629 1.273-3.655a6.292 6.292 0 0 0-.016-.452q-.143-2.002-1.596-3.132a77.617 77.617 0 0 0-.074-.061q-18.1-15.017-41.462-15.84zm273.6 138.832l-32.973-52.685h-32.077v50.176q0 2.33-1.434 3.853-1.372 1.458-3.728 1.52a8.04 8.04 0 0 1-.214.003q-2.176 0-3.648-1.328a5.51 5.51 0 0 1-.205-.195 5.268 5.268 0 0 1-.612-.732q-.905-1.31-.911-3.097a7.125 7.125 0 0 1 0-.024V62.863a7.6 7.6 0 0 1 .027-.647q.175-2.052 1.496-3.295a5.08 5.08 0 0 1 1.908-1.14q.89-.294 1.945-.294h34.227q12.903 0 23.117 5.376 9.432 4.964 15.044 13.595a41.278 41.278 0 0 1 .905 1.458 39.716 39.716 0 0 1 3.605 7.97q2.13 6.537 2.13 14.071 0 13.278-6.658 23.264a39.684 39.684 0 0 1-1.496 2.093 41.194 41.194 0 0 1-1.818 2.214q-7.413 8.413-18.87 12.012a50.536 50.536 0 0 1-1.264.379l30.822 49.28q1.434 2.509 1.434 4.122a4.62 4.62 0 0 1-.035.58q-.158 1.24-1.01 2.07a3.937 3.937 0 0 1-.479.396 4.531 4.531 0 0 1-.563.338q-1.453.737-3.827.737-1.63 0-2.667-.593a3.438 3.438 0 0 1-.2-.124q-.931-.62-1.728-1.779a10.113 10.113 0 0 1-.243-.371zm-106.445-.538l-13.261-31.718h-72.934l-13.261 31.718q-1.19 3.232-4.64 3.396a7.908 7.908 0 0 1-.378.01 7.18 7.18 0 0 1-.647-.03q-1.952-.176-3.172-1.45a4.898 4.898 0 0 1-.123-.134 6.075 6.075 0 0 1-.523-.677q-.91-1.372-.91-3.086a5.463 5.463 0 0 1 .073-.906 5.027 5.027 0 0 1 .464-1.423L524.358 61.25a8.537 8.537 0 0 1 .238-.565q1.368-2.935 4.402-3.176a7.027 7.027 0 0 1 .557-.022 6.303 6.303 0 0 1 .708.039q3.04.343 4.489 3.724l54.477 128.487q.537 1.075.537 2.33a5.348 5.348 0 0 1-.074.899q-.272 1.597-1.538 2.863a6.33 6.33 0 0 1-.544.486q-1.252.992-2.795 1.111a5.536 5.536 0 0 1-.425.016 6.951 6.951 0 0 1-.653-.03q-3.065-.289-4.364-3.375zM310.752 62.863v129.203q0 2.176-1.329 3.648a5.51 5.51 0 0 1-.194.205 5.268 5.268 0 0 1-.732.612q-1.31.905-3.097.911a7.125 7.125 0 0 1-.024 0q-2.176 0-3.648-1.328a5.51 5.51 0 0 1-.205-.195 5.268 5.268 0 0 1-.612-.732q-.905-1.31-.911-3.097a7.125 7.125 0 0 1 0-.024V62.863q0-2.176 1.329-3.648a5.51 5.51 0 0 1 .194-.205 5.268 5.268 0 0 1 .732-.612q1.31-.905 3.097-.911a7.125 7.125 0 0 1 .024 0q2.176 0 3.648 1.329a5.51 5.51 0 0 1 .205.194 5.268 5.268 0 0 1 .612.732q.905 1.31.911 3.097a7.125 7.125 0 0 1 0 .024zm186.547 89.78h64.691l-32.435-77.415-32.256 77.414zm123.469-21.505h28.851q7.674 0 14.044-2.39a33.722 33.722 0 0 0 3.518-1.552 33.23 33.23 0 0 0 1.76-.968q5.384-3.18 8.974-8.105a30.575 30.575 0 0 0 1.362-2.038q3.928-6.414 4.342-14.263a35.471 35.471 0 0 0 .048-1.865q0-9.139-4.39-16.396-4.39-7.258-12.096-11.29-7.706-4.032-17.562-4.032h-28.851v62.9z" vector-effect="non-scaling-stroke" fill="#333"/></svg>